<svg xmlns="http://www.w3.org/2000/svg" width="1200" height="1200" viewBox="0 0 1200 1200" role="img" aria-labelledby="title">
<title id="title">Artwork photo placeholder 01: vessel illustration</title>
<rect width="1200" height="1200" fill="#d8c9c0"/>
<rect x="38" y="38" width="1124" height="1124" rx="12" fill="none" stroke="#3c3b3b" stroke-opacity=".24" stroke-width="2"/>
<path d="M 90 1050 H 1110" stroke="#454348" stroke-opacity=".35" stroke-width="3"/>
<ellipse cx="600" cy="955" rx="256" ry="38" fill="#454348" opacity=".14"/>
<g fill="#735457" stroke="#423f46" stroke-width="13" stroke-linejoin="round" stroke-linecap="round">
<ellipse cx="600" cy="341" rx="105" ry="25" fill="#a98785"/>
   <path d="M500 347 L700 347 Q692 420 739 502 C807 632 785 827 731 890 Q600 955 469 890 C413 819 393 635 461 502 Q508 421 500 347Z"/>
   <ellipse cx="600" cy="345" rx="96" ry="18" fill="#d8b6a1"/>
</g>
<path d="M 543 408 C 477 520 477 685 500 817" fill="none" stroke="#fff8eb" stroke-opacity=".2" stroke-width="19" stroke-linecap="round"/>
<text x="91" y="117" fill="#383338" font-family="Arial, sans-serif" font-size="31" font-weight="700" letter-spacing="6">IMAGE 01 / 06</text>
<text x="91" y="1120" fill="#383338" font-family="Arial, sans-serif" font-size="22" font-weight="700" letter-spacing="5">PHOTO PLACEHOLDER</text>
<text x="1109" y="1120" text-anchor="end" fill="#383338" font-family="Arial, sans-serif" font-size="22" font-weight="700" letter-spacing="5">VESSEL</text>
</svg>